<?xml version="1.0" encoding="utf-8"?>
<svg version="1.0" width="2160.279376pt" height="1440.388482pt" viewBox="0 0 2160.279376 1440.388482" preserveAspectRatio="xMidYMid meet" xmlns="http://www.w3.org/2000/svg">
  <g transform="matrix(0.079295, 0, 0, -0.079295, 12.208631, 974.247986)" fill="#000000" stroke="none">
    <path d="M 10788.667 11868.14 L 321 11890 L 251.815 1423.838 L 10808.246 1479.753 L 10788.667 11868.14 Z M 465 11744 C 465 11744 10634 11734 10637 11730 L 10667.425 1631.75 L 393.995 1567.227 L 465 11744 Z M 2756 11568 C 2720 11559 2612 11480 2574 11434 C 2556 11413 2532 11387 2521 11376 C 2376 11234 2209 10801 2171 10467 C 2161 10375 2160 10087 2170 10052 C 2175 10037 2105 10035 1725 10036 L 1274 10038 L 1273 9820 C 1273 9701 1270 9382 1267 9112 C 1260 8483 1250 7016 1242 5385 C 1238 4681 1233 3725 1229 3261 L 1224 2418 L 2311 2426 C 4124 2439 5040 2446 5814 2453 C 6219 2456 7366 2463 8361 2467 C 9356 2471 10216 2476 10272 2477 L 10373 2478 L 10372 2563 C 10372 2610 10371 4311 10369 6343 L 10366 10039 L 6631 10038 C 4577 10038 2894 10041 2890 10044 C 2887 10048 2890 10058 2897 10067 C 2904 10075 2922 10125 2938 10177 C 3181 10989 3094 11650 2756 11568 Z M 2872 11095 C 2944 11037 2906 10687 2813 10556 C 2799 10536 2787 10517 2787 10513 C 2787 10505 2637 10236 2600 10176 C 2588 10158 2565 10120 2547 10091 C 2513 10035 2497 10029 2385 10037 L 2318 10041 L 2324 10182 C 2332 10357 2349 10453 2398 10606 C 2504 10940 2749 11193 2872 11095 Z M 10316 9288 L 6394 9287 C 4237 9286 2472 9288 2472 9291 C 2472 9294 2491 9320 2515 9349 C 2619 9476 2832 9855 2858 9958 L 2865 9988 L 3252 9991 C 3464 9993 5139 9994 6974 9994 L 10310 9994 L 10316 9288 Z M 2182 9983 C 2182 9959 2224 9764 2238 9725 C 2254 9680 2253 9673 2232 9650 C 2208 9624 2051 9393 2011 9323 L 1987 9282 L 1308 9282 L 1316 9449 C 1320 9541 1324 9700 1324 9802 L 1324 9988 L 1753 9988 C 1989 9988 2182 9986 2182 9983 Z M 2472 9981 C 2472 9977 2448 9942 2419 9902 C 2389 9863 2364 9828 2362 9825 C 2360 9822 2355 9823 2351 9827 C 2341 9837 2323 9974 2331 9982 C 2340 9990 2472 9990 2472 9981 Z M 1965 9233 C 1967 9232 1955 9213 1937 9190 C 1883 9119 1774 8861 1701 8632 L 1673 8543 L 1492 8540 L 1311 8538 L 1312 8890 L 1314 9241 L 1637 9238 C 1815 9236 1963 9234 1965 9233 Z M 10319 8902 C 10321 8714 10319 8558 10314 8556 C 10284 8537 3038 8551 3009 8570 C 2956 8604 2849 8626 2728 8626 L 2613 8626 L 2604 8692 C 2589 8802 2510 9169 2490 9222 C 2482 9243 2673 9244 6398 9244 L 10315 9244 L 10319 8902 Z M 2409 9071 C 2414 9038 2436 8924 2458 8818 C 2506 8579 2508 8599 2437 8570 C 2383 8547 1967 8529 1967 8549 C 1967 8574 2183 8908 2275 9026 C 2304 9062 2337 9106 2350 9125 C 2380 9167 2398 9152 2409 9071 Z M 10310 8497 C 10327 8481 10329 7831 10313 7826 C 10304 7823 8741 7818 6840 7816 L 3382 7811 L 3388 7900 C 3402 8087 3311 8332 3188 8444 L 3125 8500 L 3836 8503 C 5099 8509 10303 8504 10310 8497 Z M 1660 8481 C 1614 8362 1594 8070 1619 7885 L 1629 7805 L 1470 7809 C 1383 7811 1311 7817 1312 7822 C 1312 7827 1312 7982 1312 8166 L 1312 8500 L 1489 8500 C 1643 8500 1666 8497 1660 8481 Z M 2248 8427 C 2110 8291 2036 8103 2046 7913 L 2051 7806 L 1816 7806 L 1815 7854 C 1814 7880 1812 7920 1811 7943 C 1805 8029 1839 8219 1885 8358 L 1933 8500 L 2321 8500 L 2248 8427 Z M 2883 8253 C 2917 8235 2956 8208 2970 8193 C 3011 8149 3064 8074 3064 8061 C 3064 8055 3073 8033 3082 8013 C 3092 7993 3104 7938 3109 7891 L 3118 7806 L 2921 7806 C 2742 7806 2724 7808 2723 7828 C 2722 7840 2720 7865 2717 7882 C 2707 7950 2674 8244 2674 8264 C 2674 8300 2806 8293 2883 8253 Z M 2571 8096 C 2578 8030 2588 7938 2592 7891 L 2600 7806 L 2247 7806 L 2265 7884 C 2295 8012 2368 8119 2476 8191 C 2555 8244 2555 8244 2571 8096 Z M 10322 7056 L 9742 7054 C 9423 7053 7713 7048 5942 7044 L 2722 7037 L 2726 7072 C 2731 7120 2744 7135 2791 7145 C 3025 7194 3367 7550 3367 7744 C 3367 7771 4144 7776 8506 7774 L 10322 7773 L 10322 7056 Z M 1671 7672 C 1789 7322 2123 7097 2523 7099 C 2601 7099 2610 7096 2610 7075 C 2610 7037 2620 7038 1947 7035 L 1305 7032 L 1305 7385 C 1304 7578 1306 7743 1308 7750 C 1310 7757 1378 7762 1476 7762 L 1641 7762 L 1671 7672 Z M 2077 7731 C 2091 7671 2156 7540 2214 7451 L 2273 7363 L 2314 7403 L 2356 7443 L 2320 7502 C 2279 7568 2236 7716 2249 7748 C 2257 7770 2590 7779 2604 7757 C 2607 7751 2613 7634 2616 7495 C 2625 7192 2632 7207 2481 7217 C 2192 7235 1946 7425 1847 7706 C 1826 7767 1821 7764 1955 7763 C 2067 7763 2069 7762 2077 7731 Z M 3105 7761 C 3117 7750 3081 7632 3046 7562 C 2998 7468 2793 7264 2746 7264 C 2744 7264 2742 7336 2741 7425 C 2741 7513 2737 7627 2732 7677 L 2722 7768 L 2910 7768 C 3014 7768 3101 7765 3105 7761 Z M 10328 6288 C 10328 5715 10325 5562 10313 5562 C 10216 5563 5245 5547 4168 5542 C 3144 5537 2730 5539 2699 5549 C 2618 5575 2325 5580 2213 5557 C 2136 5542 2014 5536 1702 5534 L 1293 5530 L 1297 6249 C 1300 6644 1304 6972 1307 6977 C 1311 6982 1386 6987 1476 6987 C 1649 6987 1661 6982 1601 6942 C 1497 6873 1470 6641 1547 6479 C 1749 6052 2368 6070 2576 6507 C 2631 6624 2681 6783 2701 6898 L 2715 6985 L 2924 6989 C 3040 6991 4036 6995 5139 6997 C 6242 6999 7145 7002 7146 7003 C 7147 7004 7864 7007 8738 7010 L 10328 7014 L 10328 6288 Z M 2591 6964 C 2533 6697 2495 6607 2388 6476 C 2265 6325 2097 6296 1957 6402 C 1846 6486 1823 6559 1902 6576 C 2047 6608 2091 6856 1969 6958 L 1936 6986 L 2266 6986 C 2573 6987 2595 6985 2591 6964 Z M 10328 4818 L 9789 4815 C 9493 4813 8464 4810 7504 4808 C 6543 4806 5222 4801 4568 4797 C 3381 4788 3380 4788 3380 4814 C 3380 4986 3169 5289 2951 5431 L 2856 5492 L 3733 5499 C 4215 5502 5520 5507 6633 5508 C 7746 5510 8657 5513 8659 5515 C 8660 5516 9037 5519 9495 5522 L 10328 5527 L 10328 4818 Z M 1967 5489 C 1967 5484 1932 5462 1890 5442 C 1670 5333 1502 5040 1535 4821 L 1541 4780 L 1286 4780 L 1286 5485 L 1611 5489 C 1790 5491 1943 5494 1952 5496 C 1960 5497 1967 5494 1967 5489 Z M 2483 5409 C 2671 5345 2814 5218 2899 5041 C 2948 4939 2988 4812 2975 4800 C 2972 4797 2796 4793 2584 4790 L 2198 4784 L 2183 4825 C 2137 4953 1931 5030 1805 4966 L 1763 4944 L 1771 4979 C 1844 5289 2200 5504 2483 5409 Z M 10328 4048 L 9411 4048 C 8906 4048 8164 4045 7762 4042 C 7360 4039 6193 4033 5168 4029 L 3306 4022 L 3319 4064 C 3389 4278 3426 4561 3403 4710 C 3397 4744 3562 4747 5719 4752 C 6635 4754 7385 4757 7386 4759 C 7387 4760 8050 4763 8858 4765 L 10328 4769 L 10328 4048 Z M 1587 4652 C 1752 4333 2171 4347 2206 4672 L 2213 4735 L 2606 4739 L 2998 4743 L 3006 4703 C 3035 4560 2974 4059 2924 4028 C 2919 4025 2546 4019 2097 4014 L 1280 4006 L 1284 4364 C 1286 4561 1292 4725 1298 4729 C 1304 4732 1362 4735 1427 4734 L 1545 4733 L 1587 4652 Z M 10326 3661 L 10322 3310 L 9641 3308 C 5222 3293 2920 3280 2878 3272 C 2838 3263 2843 3282 2901 3349 C 2995 3457 3169 3729 3233 3865 C 3252 3907 3272 3948 3277 3958 C 3288 3979 3477 3982 6469 3992 C 7777 3997 8848 4002 8850 4004 C 8852 4006 9186 4008 9591 4009 L 10329 4012 L 10326 3661 Z M 2913 3974 C 2913 3923 2728 3555 2620 3392 L 2541 3273 L 1277 3265 L 1283 3603 C 1286 3789 1290 3947 1292 3954 C 1295 3963 1558 3968 2089 3971 C 2525 3973 2884 3977 2887 3980 C 2896 3989 2913 3985 2913 3974 Z M 10328 2522 L 10117 2522 C 10001 2521 9716 2519 9484 2516 C 9251 2513 8216 2508 7182 2504 C 5219 2497 3903 2489 2976 2478 C 2674 2475 2169 2472 1854 2471 L 1280 2471 L 1280 2838 C 1280 3040 1283 3207 1286 3210 C 1312 3225 2512 3230 2502 3214 C 2438 3110 2015 2708 1867 2610 C 1838 2591 1838 2589 1860 2556 C 1889 2512 1893 2513 1984 2575 C 2314 2801 2566 2999 2712 3143 L 2794 3225 L 3468 3233 C 3839 3237 4971 3244 5984 3249 C 6997 3253 7827 3258 7829 3260 C 7831 3262 8394 3264 9081 3266 L 10328 3268 L 10328 2522 Z M 8733.565 6287.225 L 8735.113 6249.556 L 10038.106 6257.04 L 10035.505 6293.346 L 8733.565 6287.225 Z M 3593 5175 C 3489 5104 3482 4990 3575 4897 C 3741 4730 3984 4952 3840 5140 C 3781 5217 3675 5232 3593 5175 Z M 3607 4669 C 3448 4589 3486 4336 3660 4317 C 3841 4296 3946 4501 3825 4637 C 3775 4693 3682 4707 3607 4669 Z M 8756.929 11536.146 L 8755.351 11496.8 L 10043.093 11486.911 L 10045 11527.707 L 8756.929 11536.146 Z M 8752 10797 L 8751.183 10756.518 L 10049.227 10751.669 L 10047.562 10793.902 L 8752 10797 Z M 1097 9906 C 755 9689 547 9202 537 8594 C 531 8257 560 8079 699 7592 C 813 7196 813 7193 813 6955 C 813 6652 755 6461 612 6297 L 556 6233 L 595 6197 C 881 5926 910 5460 689 4691 C 467 3919 485 3380 748 2917 C 828 2776 1040 2539 1076 2551 C 1119 2565 1113 2597 1058 2658 C 757 2993 692 3688 887 4490 C 1063 5213 1060 5589 876 5965 C 811 6098 807 6104 746 6177 L 692 6242 L 738 6288 C 797 6346 877 6469 896 6530 C 905 6556 916 6582 921 6589 C 945 6621 987 6856 995 6999 C 1014 7352 991 7524 839 8197 C 735 8661 729 9044 821 9332 C 862 9458 954 9650 998 9700 C 1013 9716 1039 9748 1056 9771 C 1073 9793 1115 9832 1149 9856 C 1203 9896 1208 9904 1195 9926 C 1175 9957 1179 9957 1097 9906 Z"/>
  </g>
</svg>