<?xml version="1.0" encoding="utf-8"?>
<svg version="1.0" width="2160.279376pt" height="1440.388482pt" viewBox="0 0 2160.279376 1440.388482" preserveAspectRatio="xMidYMid meet" xmlns="http://www.w3.org/2000/svg">
  <g transform="matrix(0.079295, 0, 0, -0.079295, -852.610352, 855.634521)" fill="#000000" stroke="none">
    <path d="M 26734.666 6648.696 L 26717.846 10476.667 L 11032.274 10501.734 C 11032.274 10501.734 11060.435 6654.122 11068.938 6655 C 11086.564 6656.82 26734.666 6648.696 26734.666 6648.696 Z M 11411.705 10405.6 L 11428.04 7997.163 L 11734 7999.079 L 11735 6741 L 11164 6736 L 11147 10404 L 11411.705 10405.6 Z M 12132 10404 L 12142.993 8002.054 L 12324.489 8000.075 L 12327 6741 L 11766 6734 L 11760.256 7998.967 L 11861 8000.842 C 11861 8000.842 11863 10389 11865 10395 C 11866 10400 11927 10404 11999 10404 L 12132 10404 Z M 12851 10404 L 12865.495 8008.286 L 12925 8007.945 L 12933 6741 C 12933 6741 12359 6737 12359 6750 C 12359 6759 12355.444 7998.602 12355.444 7998.602 L 12555.963 8001.099 L 12561 10404 L 12851 10404 Z M 13530.791 10404 L 13549.238 6739.94 L 12963 6741 L 12952.473 8007.519 L 13278 8008 L 13264 10404 L 13530.791 10404 Z M 13831 10404 L 13841 8008 L 14122.133 8008 L 14126.415 6737.109 L 13573.899 6739.295 L 13554.565 10403.821 L 13831 10404 Z M 14629 10404 C 14629 10404 14644.433 8023.903 14647.433 8013.903 C 14650.433 8004.903 14732.258 8006.526 14732.258 8006.526 L 14736 6741 L 14150.55 6736.351 L 14147.291 8007.853 L 14249 8008 L 14234 10404 L 14629 10404 Z M 15325.013 10399.277 L 15345.456 6741 L 14764.587 6740.355 L 14752 8008 L 15074 8008 C 15074 8008 15054 10302 15057 10395 C 15058 10401 15325.013 10399.277 15325.013 10399.277 Z M 15625 10404 L 15644 8008 L 15940 8008 L 15943.021 6741.624 L 15370.769 6741.994 L 15353.447 10398.913 L 15625 10404 Z M 16344 10404 L 16359 8008 L 16529 8008 L 16541.431 6746.992 L 15966.201 6741.45 L 15966 8008 L 16053 8008 C 16053 8008 16030 10389 16038 10397 C 16042 10401 16344 10404 16344 10404 Z M 17048 10404 L 17069.831 8005.615 L 17469 8009 L 17447 10398 L 17704.739 10403.934 L 17743.213 6749.204 L 17157.583 6747.01 L 17159.947 8007.88 L 17135.376 8008.749 L 17135.505 6746.777 L 16568.532 6748.075 L 16557 8004.709 L 16760.936 8009 C 16760.936 8009 16742 10316 16747 10395 C 16747 10400 17048 10404 17048 10404 Z M 18018 10404 L 18046 8008 L 18324.44 8008 L 18331.582 6749.199 L 17765.189 6746.597 L 17727.906 10402.356 L 18018 10404 Z M 18851 10404 L 18882 8008 L 18952.983 8008 L 18959.68 6748.358 L 18353.749 6748.104 L 18346.411 8007.759 L 18450 8010 C 18450 8010 18420 10323 18424 10395 C 18425 10400 18851 10404 18851 10404 Z M 19513 10404.08 L 19563 6747 L 18982.017 6747.509 L 18975.269 8008 L 19267.548 8008 L 19250 10402.67 L 19513 10404.08 Z M 19827.46 10402.056 L 19852.764 8009.162 L 20122.649 8007.581 L 20140 6746 L 19585 6753 L 19543 10405 L 19827.46 10402.056 Z M 20231.017 10396.232 L 20503 10392 L 20547 8008 L 20733 8008 L 20745.581 6749.352 L 20164 6753 L 20151 8008 L 20259.895 8010.314 L 20231.017 10396.232 Z M 21209 10393 C 21221 10390 21262.995 8006.077 21262.995 8006.077 L 21325.271 8005.685 L 21332 6753 L 20770 6753 L 20756 8007.278 L 20940.51 8010.389 L 20919 10391 C 20919 10391 21200 10396 21209 10393 Z M 21888 10392 L 21933 6753 L 21361.352 6753.113 L 21352.331 8005.04 L 21660 8009 L 21620 10393.774 L 21888 10392 Z M 22160 10397.009 L 22202 8005 L 22497 8009 L 22510.278 6759.541 C 22510.278 6759.541 21968 6751 21964 6756 C 21961 6761 21906 10392 21906 10392 L 22160 10397.009 Z M 22962 10392 L 23006 7995 L 23091 7995 L 23099.488 6756.548 L 22539.642 6756.372 L 22521 8007.764 L 22615.515 8008.584 L 22585 10392 L 22962 10392 Z M 23662.944 10389.663 L 23715 6753 L 23130.636 6757.126 L 23114.331 7993.927 C 23114.331 7993.927 23417 7998 23420 8001 C 23423 8004 23385 10374 23388 10381 C 23392 10387 23662.944 10389.663 23662.944 10389.663 Z M 23948 10392 L 23987.465 7996.961 L 24263.732 7994.472 L 24282 6755 L 23742 6753 L 23683.332 10390.269 L 23948 10392 Z M 24642 10392 L 24674 7995 L 24865 7995 L 24886.005 6756.049 C 24886.005 6756.049 24310 6758 24307 6766 C 24305 6773 24291 7995 24291 7995 L 24396.602 7995.791 L 24354.041 10389.984 L 24642 10392 Z M 25332 10385 L 25367 7995 L 25448.079 7995.822 L 25460.341 6761.684 C 25460.341 6761.684 24913.255 6756.984 24910.255 6758.984 C 24908.255 6761.984 24894 7995 24894 7995 L 25098 7995 C 25098 7995 25052 10376 25054 10380 C 25056 10384 25332 10385 25332 10385 Z M 26007.926 10378.259 L 26051.641 6756.746 C 26051.641 6756.746 25490.907 6759.354 25488.907 6761.354 C 25486.907 6763.354 25470.008 7994.671 25470.008 7994.671 L 25766 7995 L 25733.656 10378.358 L 26007.926 10378.259 Z M 26618.086 10376.596 L 26632.04 6756 C 26632.04 6756 26089.52 6754.27 26082.52 6756.27 C 26074.52 6758.27 26041.274 10373.78 26041.274 10373.78 C 26041.274 10376.78 26618.086 10376.596 26618.086 10376.596 Z M 14159 8920 C 14276 8788 14130 8593 13971 8669 C 13915 8695 13885 8748 13885 8817 C 13885 8966 14061 9032 14159 8920 Z M 14935 8952 C 14974 8931 15007 8863 15007 8806 C 15007 8651 14778 8594 14712 8733 C 14640 8885 14788 9031 14935 8952 Z M 15936 8935 C 16020 8870 16016 8739 15929 8680 C 15852 8628 15749 8651 15700 8731 C 15609 8881 15795 9042 15936 8935 Z M 16614 8962 C 16784 8890 16708 8623 16527 8657 C 16337 8692 16361 8960 16556 8978 C 16565 8978 16591 8971 16614 8962 Z M 17327 8960 C 17479 8882 17426 8651 17256 8651 C 17169 8651 17093 8741 17104 8830 C 17120 8947 17230 9011 17327 8960 Z M 18318 8954 C 18431 8884 18421 8725 18300 8671 C 18207 8629 18112 8676 18084 8778 C 18047 8916 18197 9029 18318 8954 Z M 19127 8966 C 19235 8925 19265 8783 19183 8701 C 19084 8602 18917 8676 18917 8820 C 18917 8934 19020 9006 19127 8966 Z M 20112 8954 C 20261 8863 20211 8660 20039 8660 C 19980 8660 19943 8681 19912 8731 C 19826 8873 19974 9038 20112 8954 Z M 20824 8939 C 20934 8861 20890 8683 20754 8657 C 20665 8641 20574 8724 20576 8821 C 20579 8953 20713 9017 20824 8939 Z M 21540 8938 C 21660 8845 21600 8651 21451 8651 C 21348 8651 21273 8752 21300 8853 C 21330 8963 21452 9006 21540 8938 Z M 24929 8955 C 25060 8888 25045 8701 24907 8664 C 24725 8615 24638 8886 24811 8961 C 24863 8984 24875 8983 24929 8955 Z M 11727 8948 C 11837 8892 11830 8729 11715 8670 C 11605 8613 11476 8707 11493 8833 C 11507 8940 11628 8999 11727 8948 Z M 12464.496 8910.002 C 12566.539 8768.706 12444.267 8652.657 12342.64 8654.47 C 12251.694 8656.092 12165.792 8770.78 12206.931 8872.152 C 12246.152 8968.797 12397.013 9003.443 12464.496 8910.002 Z M 13138 8949 C 13279 8872 13218 8651 13057 8651 C 12939 8651 12871 8765 12920 8883 C 12951 8957 13063 8991 13138 8949 Z M 22469 8950 C 22590 8882 22580 8710 22452 8665 C 22296 8610 22172 8807 22289 8924 C 22336 8970 22412 8982 22469 8950 Z M 23307 8918 C 23431 8794 23295 8590 23142 8670 C 22994 8746 23036 8966 23198 8966 C 23251 8966 23264 8961 23307 8918 Z M 24278 8918 C 24386 8809 24307 8635 24159 8655 C 24018 8674 23974 8870 24094 8943 C 24158 8983 24221 8974 24278 8918 Z M 25627 8938 C 25789 8829 25660 8587 25484 8671 C 25376 8723 25371 8893 25476 8945 C 25534 8974 25576 8972 25627 8938 Z"/>
  </g>
</svg>