<?xml version="1.0" encoding="utf-8"?>
<svg version="1.0" width="2160.279376pt" height="1440.388482pt" viewBox="0 0 2160.279376 1440.388482" preserveAspectRatio="xMidYMid meet" xmlns="http://www.w3.org/2000/svg">
  <g transform="matrix(0.079295, 0, 0, -0.079295, -1312.256714, 495.291534)" fill="#000000" stroke="none">
    <path d="M 20392 5758 C 20340 5742 20266 5717 20228 5701 C 20078 5640 19950 5654 19878 5739 C 19834 5793 19830 5789 19795 5647 C 19778 5576 19729 5378 19686 5208 C 19644 5038 19580 4780 19545 4635 C 19509 4489 19477 4359.653 19473 4354.653 C 19469 4349.653 18898.405 4350.084 18208 4345.039 C 17516.016 4339.983 16943 4342 16934 4337 C 16927.423 4332.066 16934.358 4316.912 16934.358 4316.912 C 16934.358 4316.912 17525.583 4312.489 18212 4316 C 19146 4321 19467.893 4322.201 19467.893 4316.882 C 19467.893 4305.402 19427 4169 19388 4017 C 19350 3864 19313 3716 19307 3689 C 19274 3542 19233 3377 19227 3371 C 19224 3368 19207 3393 19189 3427 C 19152 3500 19088 3556 18985 3603 C 18894 3644 18690.338 3641.543 18620 3615 C 18473.78 3559.821 18426 3455 18418 3411 C 18365 3130 18760 2917 19057 3066 C 19198 3136 19273 3301 19377 3771 C 19385 3809 19419 3950 19453 4084 C 19453 4084 19495.487 4272.124 19515.948 4314.821 C 19515.948 4314.821 24213 4328 24213 4346 C 24213 4350.801 24231.699 4373.717 24207.562 4377.805 C 24185.088 4381.611 19546.512 4347.782 19530.834 4348.262 C 19521.581 4348.545 19529 4418 19617 4742 C 19658 4892 19774 5376 19774 5397 C 19774 5449 19802 5463 19861 5442 C 20008 5391 20174 5431 20425 5578 C 20552 5653 20687 5701 20802 5712 C 20883 5719 20888 5721 20861 5736 C 20757 5794 20543 5804 20392 5758 Z M 21129 5512 C 21068 5475 21028 5368 20971 5085 C 20948 4976 20941 4982 20833 5193 C 20736 5381 20709 5410 20694 5341 C 20669 5228 20571 5024 20509 4955 C 20434 4872 20379 4851 20265 4859 L 20168 4867 L 20162 4828 C 20147 4724 20402 4746 20499 4858 C 20547 4913 20659 5124 20674 5186 C 20685 5230 20704 5231 20721 5188 C 20727 5170 20766 5086 20807 5002 C 20847 4918 20885 4836 20889 4821 C 20903 4778 20947 4783 20947 4827 C 20947 4846 20959 4904 20973 4956 C 21025 5143 21034 5178 21054 5259 C 21078 5354 21101 5394 21142 5410 C 21162 5417 21174 5435 21179 5466 C 21194 5543 21188 5549 21129 5512 Z M 17913 5381 C 17872 5272 17823 5037 17840 5023 C 17857 5011 17856 5008 17835 5001 C 17817 4996 17805 4969 17789 4902 C 17777 4852 17765 4801 17761 4789 C 17756 4771 17763 4767 17798 4767 C 17844 4767 17851 4780 17877 4915 C 17889 4980 17902 4975 17967 4882 C 18178 4576 18169 4585 18201 4639 L 18222 4675 L 18156 4762 C 18052 4899 17956 5034 17960 5037 C 17963 5039 18031 5103 18112 5181 C 18269 5331 18299 5346 18349 5297 C 18383 5263 18397 5265 18407 5303 C 18417 5344 18396 5370 18343 5379 C 18278 5392 18230 5360 18078 5208 C 17908 5038 17901 5036 17938 5166 C 17986 5333 17996 5369 17996 5383 C 17996 5403 17921 5401 17913 5381 Z M 21706 5307 C 21698 5298 21691 5280 21691 5266 C 21691 5224 21675 5211 21622 5206 C 21552 5201 21541 5158 21608 5158 C 21671 5158 21667 5132 21591 5056 C 21520 4985 21495 4979 21484 5029 C 21435 5251 21087 5161 21086 4927 C 21085 4711 21366 4677 21456 4882 C 21472 4917 21493 4945 21508 4949 C 21522 4952 21549 4970 21568 4987 C 21626 5042 21636 5034 21608 4953 C 21549 4779 21681 4688 21813 4812 C 21857 4854 21880 4858 21880 4824 C 21880 4767 22031 4734 22134 4769 C 22189 4788 22271 4845 22271 4865 C 22271 4884 22238 4886 22227 4868 C 22166 4768 21959 4797 21950 4906 C 21940 5028 22083 5156 22152 5087 C 22210 5028 22106 4904 22018 4928 C 21998 4933 21992 4930 21996 4917 C 22006 4887 22101 4888 22157 4920 C 22292 4995 22250 5158 22097 5158 C 21992 5158 21906 5088 21871 4974 C 21849 4904 21771 4805 21736 4805 C 21679 4805 21674 4832 21709 4971 C 21727 5045 21742 5116 21742 5131 C 21742 5151 21751 5157 21789 5160 C 21847 5165 21855 5200 21800 5206 C 21767 5210 21765 5214 21772 5249 C 21783 5308 21743 5343 21706 5307 Z M 21320 5077 C 21309 5031 21332 4985 21378 4961 C 21401 4950 21422 4939 21424 4937 C 21436 4926 21373 4833 21340 4814 C 21198 4731 21109 4929 21230 5061 C 21280 5117 21333 5126 21320 5077 Z M 21421 5051 C 21444 4996 21444 4994 21416 4994 C 21388 4994 21357 5047 21367 5075 C 21380 5107 21401 5098 21421 5051 Z M 18420 5139 C 18252 5080 18199 4844 18338 4773 C 18422 4729 18582 4768 18682 4856 C 18732 4899 18747 4897 18759 4845 C 18774 4773 18851 4751 18939 4794 C 19003 4825 19008 4823 18994 4773 C 18985 4736 18982 4735 18884 4728 C 18733 4716 18646 4663 18610 4559 C 18560 4416 18702 4342 18864 4426 C 18933 4461 19030 4575 19030 4619 C 19030 4666 19061 4683 19105 4660 C 19135 4645 19150 4643 19160 4652 C 19170 4662 19159 4672 19120 4687 C 19081 4703 19069 4713 19075 4728 C 19079 4739 19102 4829 19126 4928 C 19150 5027 19173 5117 19177 5127 C 19183 5141 19173 5145 19133 5145 C 19087 5145 19080 5141 19073 5111 C 19027 4918 19020 4900 18980 4865 C 18926 4816 18849 4818 18843 4869 C 18840 4898 18877 5068 18899 5126 C 18906 5144 18899 5146 18853 5143 L 18798 5139 L 18778 5046 C 18754 4931 18657 4847 18492 4799 C 18400 4772 18314 4881 18348 4979 C 18392 5104 18548 5168 18570 5071 C 18586 4995 18527 4928 18440 4926 C 18388 4924 18383 4905 18431 4889 C 18471 4876 18591 4928 18618 4971 C 18658 5033 18650 5099 18597 5132 C 18548 5162 18490 5164 18420 5139 Z M 18967 4678 C 18967 4609 18831 4446 18765 4436 C 18600 4412 18644 4611 18817 4674 C 18870 4693 18967 4696 18967 4678 Z M 19774 4027 C 19703 3999 19642 3868 19673 3810 C 19700 3758 19739 3793 19729 3860 C 19715 3948 19806 4027 19868 3981 C 19900 3958 19899 3915 19863 3687 C 19832 3495 19835 3439 19876 3395 C 19984 3278 20213 3507 20292 3811 C 20333 3970 20321 4034 20254 3998 C 20233 3987 20228 3972 20228 3918 C 20228 3851 20183 3644 20165 3632 C 20160 3629 20141 3597 20124 3563 C 20077 3470 20022 3423 19967 3429 C 19945 3431 19946 3516 19970 3695 C 19994 3867 19987 3929 19941 3984 C 19906 4026 19824 4047 19774 4027 Z M 22435 3991 C 22435 3981 22412 3877 22384 3761 C 22324 3513 22279 3443 22180 3443 C 22112 3443 22110 3461 22156 3623 C 22184 3719 22192 3765 22183 3771 C 22165 3782 22106 3772 22085 3755 C 22074 3746 22056 3749 22027 3764 C 21917 3824 21776 3719 21762 3569 C 21753 3462 21608 3384 21559 3460 C 21541 3486 21541 3495 21559 3545 C 21570 3575 21584 3623 21590 3651 C 21597 3679 21605 3717 21610 3736 C 21618 3769 21616 3771 21569 3771 L 21519 3771 L 21496 3667 C 21460 3509 21370 3406 21300 3443 C 21267 3461 21268 3495 21306 3640 C 21324 3705 21338 3761 21338 3765 C 21338 3769 21314 3770 21284 3768 L 21231 3764 L 21212 3670 C 21188 3552 21119.912 3460.943 21067.913 3457.003 C 21020.819 3453.435 21041.229 3476.147 21040 3524.716 C 21039.002 3564.152 20979 3682 20974 3711 C 20960 3796 20891 3792 20819 3703 C 20791 3667 20728 3601 20678 3555 C 20486 3380 20445 3387 20500 3589 C 20547 3760 20547 3764 20494 3764 C 20442 3764 20439 3758 20406 3611 C 20378 3488 20373 3422 20390 3395 C 20412 3361 20508.191 3379.382 20565.236 3408.764 C 20625.269 3439.685 20670 3487 20738 3556 C 20805 3626 20862 3682 20865 3682 C 20875 3682 20960 3522 20960 3504 C 20960 3429 20830 3409 20776 3475 C 20748 3509 20733 3505 20733 3461 C 20733 3368 20982 3353 21112 3438 C 21188 3488 21187 3488 21187 3455 C 21187 3369 21368 3364 21438 3448 C 21459 3473 21477 3474 21477 3449 C 21477 3423 21551 3379 21583 3386 C 21598 3389 21630 3394 21655 3398 C 21680 3402 21716 3420 21735 3438 L 21770 3470 L 21807 3434 C 21856 3388 21944 3384 21999 3427 L 22035 3455 L 22064 3424 C 22111 3374 22201 3379 22277 3437 L 22335 3481 L 22346 3452 C 22378 3368 22506 3365 22595 3446 L 22623 3471 L 22638 3439 C 22668 3374 22849 3389 22871 3458 C 22883 3496 22859 3511 22833 3481 C 22804 3449 22731 3446 22720 3476 C 22716 3487 22727 3556 22745 3629 C 22781 3771 22778 3788 22718 3781 C 22681 3777 22653 3712 22630 3578 C 22621 3523 22592 3490 22527 3461 C 22410 3409 22408 3494 22516 3884 C 22532 3943 22543 3996 22540 4001 C 22529 4020 22435 4011 22435 3991 Z M 22045 3695 C 22081 3644 22044 3509 21984 3469 C 21928 3433 21869 3450 21866 3504 C 21856 3670 21974 3795 22045 3695 Z M 22721 3980 C 22679 3947 22697 3854 22746 3849 C 22817 3842 22855 3938 22798 3978 C 22764 4002 22751 4002 22721 3980 Z M 20504 3964 C 20476 3957 20453 3902 20463 3864 C 20472 3829 20523 3810 20555 3830 C 20599 3857 20578 3981 20532 3971 C 20528 3970 20515 3967 20504 3964 Z M 23450 3773 C 23273 3689 23227 3472 23371 3397 C 23445 3359 23637 3397 23708 3464 C 23753 3507 23790 3527 23782 3504 C 23734 3376 23734 3375 23808 3387 C 23845 3393 23860 3402 23860 3417 C 23860 3490 23911 3627 23951 3660 C 24015 3713 24075 3705 24075 3643 C 24075 3602 24078 3601 24116 3621 C 24156 3642 24161 3654 24150 3704 C 24133 3779 24073 3793 23994 3739 C 23928 3695 23910 3697 23936 3746 C 23946 3764 23945 3771 23933 3772 C 23924 3773 23899 3776 23878 3778 L 23839 3783 L 23822 3694 C 23812.545 3642.47 23776.925 3578.014 23728.259 3533.62 C 23673.983 3484.11 23627.336 3462.769 23605 3453 C 23566.101 3437.607 23567 3438 23513 3438 C 23513 3438 23411.025 3446.186 23398.664 3494.333 C 23374.458 3588.614 23476 3777 23584 3720 C 23658 3680 23574 3550 23480 3559 C 23415 3566 23401 3554 23446 3530 C 23493 3505 23591 3522 23628 3562 C 23751 3696 23619 3853 23450 3773 Z M 22956 3764 C 22954 3756 22950 3733 22949 3713 L 22946 3676 L 23040 3681 L 23133 3685 L 23103 3649 C 23086 3629 23060 3599 23047 3583 C 23033 3566 22995 3524 22962 3488 C 22875 3395 22878 3392 23045 3392 C 23197 3392 23204 3395 23204 3455 C 23204 3483 23181 3493 23148 3480 C 23112 3466 23053 3466 23053 3480 C 23053 3486 23069 3509 23088 3530 C 23107 3551 23134 3589 23148 3616 C 23175 3668 23177 3671 23224 3730 C 23242 3752 23252 3772 23247 3773 C 23201 3782 22961 3775 22956 3764 Z"/>
  </g>
</svg>