<?xml version="1.0" encoding="utf-8"?>
<svg version="1.0" width="2160.279376pt" height="1440.388482pt" viewBox="0 0 2160.279376 1440.388482" preserveAspectRatio="xMidYMid meet" xmlns="http://www.w3.org/2000/svg">
  <g transform="matrix(0.079295, 0, 0, -0.079295, -1836.270386, 200.556091)" fill="#000000" stroke="none">
    <path d="M 25118.052 1799.042 C 25120.574 1802.75 25117.232 1810.935 25112.288 1814.277 C 25106.058 1818.489 25087.457 1819.485 25083.51 1824.87 C 25073.547 1838.465 25078.49 1868.542 25076.347 1920.79 C 25073.774 1975.623 25071.907 2042.286 25076.977 2060.181 C 25082.047 2078.076 25104.671 2061.669 25109.161 2073.044 C 25113.65 2084.42 25119.035 2093.613 25107.773 2104.56 C 25085.439 2114.649 25091.871 2112.694 25065.867 2116.099 C 25039.863 2119.504 25023.783 2116.956 25014.35 2115.241 C 24993.365 2111.395 24980.729 2105.178 24976.454 2096.501 C 24972.166 2087.825 24987.993 2068.328 25008.637 2064.683 C 25029.837 2060.938 25018.815 1987.213 25018.815 1931.106 C 25018.815 1874.999 25024.099 1819.258 25000.491 1817.139 C 24994.954 1816.647 24979.455 1811.792 24977.311 1808.248 C 24975.167 1804.717 24974.953 1800.858 24977.526 1797.441 C 24982.671 1788.449 25011.361 1784.376 25042.952 1784.804 C 25074.543 1785.233 25109.968 1787.15 25118.052 1799.042 Z M 25174.272 1815.727 C 25163.111 1811.288 25162.733 1798.387 25166.554 1792.812 C 25171.321 1785.851 25192.319 1785.233 25226.797 1784.804 C 25261.276 1784.376 25289.071 1783.215 25302.338 1792.207 C 25310.056 1797.34 25313.739 1814.138 25302.174 1817.139 C 25286.335 1821.414 25278.831 1820.986 25274.556 1851.505 C 25270.268 1882.024 25269.196 1943.49 25266.195 2071.556 L 25264.492 2148.648 L 25262.777 2225.74 L 25333.021 2225.74 C 25362.569 2225.74 25380.767 2224.668 25394.261 2220.178 C 25407.755 2215.676 25416.532 2207.757 25427.239 2194.048 C 25448.665 2166.632 25467.935 2160.427 25478.213 2169.633 C 25488.491 2178.839 25484.821 2217.139 25475.211 2237.733 C 25469.65 2249.651 25455.336 2259.639 25446.13 2264.38 C 25432.069 2271.632 25397.085 2271.481 25397.085 2271.481 L 25340.071 2272.603 L 25255.916 2271.998 C 25199.81 2271.569 25144.56 2270.283 25100.762 2268.567 C 25056.976 2266.865 25024.641 2264.721 25014.35 2262.577 C 25004.072 2260.862 24995.471 2255.603 24988.27 2248.806 C 24981.082 2241.996 24975.294 2233.635 24970.665 2225.74 C 24966.125 2217.984 24962.266 2206.634 24962.014 2195.196 C 24961.762 2183.745 24965.104 2172.206 24974.953 2164.072 C 24981.813 2158.939 24988.018 2157.652 24995.724 2161.284 C 25003.442 2164.929 25012.648 2173.492 25025.486 2188.058 C 25040.48 2204.768 25050.973 2214.188 25065.324 2219.422 C 25079.676 2224.668 25097.874 2225.74 25128.279 2225.74 L 25197.666 2225.74 L 25197.666 1925.078 C 25197.666 1925.078 25196.253 1835.741 25192.281 1825.021 C 25189.872 1818.539 25182.873 1816.849 25174.272 1815.727 Z M 25351.269 2081.885 C 25336.703 2043.333 25342.441 2024.441 25378.421 2024.441 C 25392.117 2024.441 25385.836 2037.367 25389.317 2044.922 C 25394.046 2055.2 25393.706 2058.68 25426.911 2066.726 C 25457.783 2074.217 25511.506 2065.188 25511.506 2065.188 C 25511.506 2065.188 25476.006 2021.641 25466.964 2007.656 C 25454.844 1988.916 25449.308 1979.873 25422.396 1936.466 C 25395.484 1893.058 25376.391 1875.024 25361.282 1850.546 C 25352.757 1836.737 25331.52 1827.165 25333.866 1810.291 C 25335.606 1797.844 25352.921 1797.239 25368.988 1796.583 C 25385.609 1795.902 25443.52 1785.448 25492.35 1787.163 L 25579.72 1790.593 L 25596.001 1837.695 C 25611.26 1876.752 25594.437 1881.961 25565.167 1857.684 C 25555.923 1850.017 25542.694 1843.9 25531.016 1838.893 C 25491.984 1822.146 25437.239 1833.118 25436.811 1842.261 C 25436.495 1849.096 25467.393 1887.648 25490.521 1934.763 C 25513.65 1981.021 25546.313 2021.011 25550.601 2024.441 C 25554.018 2027.871 25563.439 2041.58 25572.015 2055.275 C 25579.72 2069.841 25579.039 2063.561 25590.565 2074.835 C 25595.194 2079.363 25602.962 2102.025 25572.872 2104.963 C 25445.764 2117.347 25365.835 2118.722 25351.269 2081.885 Z M 25639.686 2094.685 C 25639.686 2085.265 25647.391 2074.129 25658.527 2069.841 C 25673.093 2063.851 25677.368 2037.292 25677.368 1942.204 C 25677.368 1843.698 25673.95 1822.285 25658.527 1822.285 C 25647.391 1822.285 25639.686 1814.567 25639.686 1805.146 C 25639.686 1788.02 25882.097 1783.732 25899.236 1800.013 C 25923.222 1824.857 25914.659 1887.383 25888.1 1880.535 C 25879.978 1878.278 25886.549 1854.241 25863.748 1836.623 C 25845.89 1822.827 25802.899 1822.423 25787.879 1824.857 C 25763.893 1828.275 25758.748 1836.838 25755.33 1882.251 C 25751.042 1939.631 25760.463 1946.492 25807.578 1920.79 C 25856.408 1893.386 25860.872 1917.953 25853.835 1930.211 C 25847.833 1937.071 25837.491 1962.76 25839.27 1987.604 C 25841.514 2018.905 25824.161 2039.625 25809.167 1995.877 C 25801.272 1972.849 25782.734 1973.896 25773.313 1973.896 C 25761.32 1973.896 25755.33 1990.177 25755.33 2023.584 L 25754.472 2073.271 L 25799.872 2067.268 C 25856.408 2060.421 25919.792 2027.014 25896.663 2072.414 L 25876.964 2112.669 L 25757.89 2112.669 C 25664.53 2112.669 25639.686 2108.393 25639.686 2094.685 Z M 25941.041 2095.82 C 25941.041 2089.83 25952.038 2077.824 25965.04 2071.821 C 25997.035 2053.825 26005.03 1830.822 25974.032 1830.822 C 25946.035 1830.822 25949.037 1792.825 25976.037 1791.829 C 26069.032 1785.826 26110.031 1799.824 26077.04 1823.823 C 26064.038 1833.824 26055.033 1856.827 26055.033 1880.826 C 26055.033 1936.819 26086.032 1927.827 26137.031 1855.83 C 26173.036 1803.822 26181.031 1798.828 26229.029 1798.828 C 26285.035 1798.828 26308.038 1821.831 26260.04 1828.83 C 26245.033 1830.822 26218.032 1849.827 26200.036 1871.821 L 26167.033 1910.827 L 26198.031 1936.819 C 26254.037 1984.83 26247.038 2066.827 26184.033 2094.824 C 26147.032 2111.824 25941.041 2112.82 25941.041 2095.82 Z M 26167.638 2043.799 C 26183.692 1992.434 26158.041 1956.82 26099.034 1956.82 C 26055.033 1956.82 26047.278 2001.791 26044.692 2058.731 C 26044.692 2058.731 26154.825 2084.798 26167.638 2043.799 Z M 23470 2232 L 23401 2211 L 23438 2193 C 23493 2167 23611 1837 23576 1811 C 23539 1784 23565 1769 23636 1775 C 23714 1782 23717 1784 23697 1808 C 23685 1823 23686 1841 23702 1893 C 23713 1929 23721 1972 23721 1989 C 23721 2040 23753 2020 23770 1958 C 23779 1925 23792 1882 23798 1861 C 23806 1837 23805 1819 23795 1808 C 23775 1783 23789 1775 23854 1775 C 23920 1775 23933 1783 23912 1809 C 23899 1823 23901 1842 23921 1900 C 23935 1941 23961 2023 23979 2084 C 24008 2178 24017 2195 24044 2202 C 24092 2214 24074 2237 24007 2249 C 23940 2262 23924 2255 23949 2226 C 23962 2210 23959 2187 23932 2096 C 23914 2036 23894 1966 23888 1942 C 23882 1918 23873 1898 23867 1898 C 23850 1898 23797 2082 23800 2130 C 23803 2173 23803 2173 23749 2173 C 23687 2172 23668 2160 23700 2142 C 23725 2128 23728 2091 23707 2052 C 23698 2036 23686 1994 23678 1957 C 23659 1861 23647 1872 23586 2045 C 23537 2182 23533 2202 23551 2214 C 23591 2244 23543 2255 23470 2232 Z M 24018 2081 C 24013 2074 24019 2059 24030 2048 C 24044 2034 24049 2003 24049 1929 C 24049 1806 24070 1778 24164 1778 C 24255 1778 24291 1842 24270 1966 C 24263 2007 24267 2021 24288 2043 C 24324 2078 24311 2093 24245 2093 C 24179 2093 24165 2078 24200 2043 C 24221 2023 24226 2001 24226 1937 C 24226 1830 24220 1816 24169 1816 C 24118 1816 24112 1829 24112 1949 C 24112 2022 24117 2044 24133 2053 C 24144 2060 24150 2071 24145 2079 C 24134 2097 24029 2098 24018 2081 Z M 24339 2081 C 24339 2075 24350 2063 24363 2057 C 24395 2039 24403 1816 24372 1816 C 24344 1816 24347 1778 24374 1777 C 24467 1771 24508 1785 24475 1809 C 24462 1819 24453 1842 24453 1866 C 24453 1922 24484 1913 24535 1841 C 24571 1789 24579 1784 24627 1784 C 24683 1784 24706 1807 24658 1814 C 24643 1816 24616 1835 24598 1857 L 24565 1896 L 24596 1922 C 24652 1970 24645 2052 24582 2080 C 24545 2097 24339 2098 24339 2081 Z M 24548 2030 C 24584 1990 24556 1942 24497 1942 C 24453 1942 24453 1942 24453 1999 C 24453 2064 24502 2081 24548 2030 Z M 24693 2081 C 24693 2074 24704 2061 24718 2053 C 24752 2031 24757 1816 24723 1816 C 24712 1816 24705 1809 24708 1800 C 24712 1790 24746 1783 24807 1781 C 24905 1777 24944 1798 24944 1857 C 24945 1889 24903 1884 24888 1851 C 24880 1833 24862 1821 24841 1818 L 24807 1814 L 24807 1929 C 24807 2018 24811 2046 24825 2051 C 24874 2070 24842 2093 24768 2093 C 24727 2093 24693 2088 24693 2081 Z"/>
  </g>
</svg>